<?xml version="1.0" encoding="UTF-8" standalone="no"?>
<svg width="36px" height="36px" viewBox="0 0 36 36" version="1.1" xmlns="http://www.w3.org/2000/svg" xmlns:xlink="http://www.w3.org/1999/xlink">
    <!-- Generator: Sketch 3.6.1 (26313) - http://www.bohemiancoding.com/sketch -->
    <title>icon/36/brand-circle</title>
    <desc>Created with Sketch.</desc>
    <defs>
        <ellipse id="path-1" cx="15" cy="15" rx="15" ry="15"></ellipse>
    </defs>
    <g id="Page-1" stroke="none" stroke-width="1" fill="none" fill-rule="evenodd">
        <g id="icon/36/brand-circle" transform="translate(3.000000, 3.000000)">
            <mask id="mask-2" fill="white">
                <use xlink:href="#path-1"></use>
            </mask>
            <use id="Mask" fill="#FFFFFF" xlink:href="#path-1"></use>
            <g id="owl-brand" mask="url(#mask-2)" fill="#383387">
                <g transform="translate(3.600000, 3.200000)">
                    <path d="M13.7516946,4.11189841 C14.353766,4.0616127 14.8800098,4.4832 14.9270229,5.05412063 C14.9745416,5.62504127 14.5251365,6.12840635 13.9230651,6.1792 C13.3214992,6.22948571 12.7952555,5.80739048 12.7477368,5.23697778 C12.7002182,4.66605714 13.1501288,4.16218413 13.7516946,4.11189841 M14.0105196,7.23367619 C15.2313445,7.10262857 16.1053843,6.12332698 16.0391615,4.96116825 C15.9173318,3.84624762 14.8845594,2.9263746 13.6642401,3.05742222 C12.4889118,3.18339048 11.5097244,4.17234286 11.6355982,5.32993016 C11.757428,6.44434286 12.7902003,7.36421587 14.0105196,7.23367619" id="Fill-1"></path>
                    <path d="M13.39945,13.0050032 C12.8009173,13.0552889 12.2777066,12.6357333 12.230188,12.0678603 C12.1831748,11.5004952 12.6305579,10.9996698 13.2290906,10.9493841 C13.8276234,10.8990984 14.350834,11.318654 14.3978472,11.886527 C14.4448603,12.4538921 13.9979828,12.9547175 13.39945,13.0050032 M13.1416361,9.90049524 C11.9728795,10.0259556 10.9992528,11.0098286 11.1246211,12.1603048 C11.2454398,13.2691302 12.2726514,14.1839238 13.486399,14.0538921 C14.7001466,13.9238603 15.5696368,12.9496381 15.5039195,11.7935746 C15.3825953,10.6852571 14.3558892,9.77046349 13.1416361,9.90049524" id="Fill-3"></path>
                    <path d="M20.7812699,6.31781587 C20.7741926,6.29343492 20.7671154,6.2695619 20.7595326,6.24518095 C20.7479057,6.20708571 20.7347622,6.16899048 20.7226298,6.13089524 C20.5942284,5.7352127 20.4400455,5.35070476 20.2610923,4.98041905 L17.7314826,8.87781587 L19.9618259,13.5787683 C20.6149546,12.4359111 21.0355452,11.1279746 21.1452425,9.71794286 C21.219048,8.77826032 21.1497921,7.86194286 20.9576955,6.99032381 C20.9071437,6.76276825 20.8479982,6.53876825 20.7812699,6.31781587" id="Fill-5"></path>
                    <path d="M10.3958165,7.02333968 L11.4326329,8.39781587 L10.1981591,9.60619683 L8.64419822,8.18549841 L10.3958165,7.02333968 Z M13.5881597,2.14359365 C15.3458442,2.03743492 16.8214499,3.22041905 17.0024252,4.88035556 C17.0939238,6.48594286 15.843779,8.04124444 14.0866,8.14740317 C12.3936218,8.24949841 10.7673719,7.07768889 10.6723346,5.41064127 C10.5808359,3.80454603 11.8309808,2.24975238 13.5881597,2.14359365 L13.5881597,2.14359365 Z M13.5633894,14.9791492 C11.8704111,15.0812444 10.2441612,13.9094349 10.1491239,12.2423873 C10.0576252,10.6362921 11.3077701,9.08149841 13.0649491,8.97533968 C14.8226335,8.86918095 16.2982392,10.0521651 16.4792145,11.7121016 C16.5707132,13.3176889 15.3205683,14.8729905 13.5633894,14.9791492 L13.5633894,14.9791492 Z M3.78465814,9.78448254 C3.79375746,9.90384762 3.80437332,10.0227048 3.8180223,10.141054 C3.82004437,10.1603556 3.82257195,10.1796571 3.82459402,10.1994667 C4.01517414,11.892419 4.54697858,13.5828317 5.58480609,14.9547683 C6.89055788,16.6812444 8.98188393,17.7270857 11.1753245,17.9449905 C11.3694433,17.9739429 11.5655841,17.9988317 11.7642525,18.0145778 C12.4295135,18.0674032 13.0826422,18.0394667 13.7160557,17.9419429 C16.0560963,17.5813079 18.1201244,16.2484825 19.4809776,14.3300063 L16.8669465,8.81229206 L19.8414116,4.21546667 C19.8181578,4.17737143 19.7933875,4.13978413 19.7696282,4.10219683 C19.5962356,3.8263873 19.4091942,3.56073651 19.2085037,3.30626032 C19.1675568,3.25495873 19.1276209,3.20314921 19.0856629,3.15286349 C17.6424104,1.41165714 15.5571505,0.240863492 13.1670636,0.0524190476 C8.37324082,-0.325485714 4.17340112,3.38905397 3.78566917,8.3495619 C3.74977743,8.80924444 3.74826088,9.26384762 3.77859193,9.71032381 C3.78010848,9.7352127 3.78263607,9.75959365 3.78465814,9.78448254 L3.78465814,9.78448254 Z" id="Fill-7"></path>
                    <path d="M13.9379779,19.0018032 C13.2287368,19.1110095 12.4972529,19.1419937 11.7526255,19.083073 C11.5301978,19.0658032 11.3108032,19.0378667 11.0929252,19.0053587 C10.3771123,18.9342476 9.67242089,18.7818667 8.99502739,18.5573587 C8.50366434,20.1116444 8.51023607,21.8558984 8.94750874,23.403073 C9.58142773,25.6461206 10.625827,27.5701841 12.3122335,29.1325968 C12.7631551,29.5506286 13.2332864,29.9458032 13.7024067,30.3414857 C14.4864644,31.0038349 16.1106922,31.8485333 16.1111977,31.8490413 C16.132935,31.8602159 16.1839923,31.8485333 16.2476875,31.8251683 C17.0100079,31.115073 17.6985228,30.3435175 18.3041328,29.5206603 C20.0471573,27.0139937 21.0243227,23.9013587 20.8954157,20.5652317 C20.8281819,18.8240254 20.4637037,17.1681524 19.8570827,15.6458667 C18.3526625,17.4226286 16.2674027,18.6426921 13.9379779,19.0018032" id="Fill-9"></path>
                    <path d="M13.5254755,31.4904381 C12.9785056,31.0287238 12.430019,30.5680254 11.9037753,30.0804063 C9.93680656,28.2574222 8.71850929,26.0133587 7.97893714,23.3969778 C7.50526721,21.7187556 7.46533132,19.8419302 7.92333021,18.1286603 C6.71211019,17.5541841 5.63889646,16.7216762 4.83360703,15.6570413 C3.67192773,14.1210413 3.07592255,12.2284698 2.86309967,10.3328508 C2.86057208,10.3110095 2.85753898,10.2891683 2.85551691,10.267327 C2.84035138,10.1352635 2.82821896,10.0016762 2.81810861,9.86808889 C2.81608654,9.84066032 2.81355895,9.81272381 2.81103136,9.78529524 C2.77766721,9.28548571 2.77918376,8.77653333 2.81962516,8.26148571 C2.85400036,7.8216127 2.91567349,7.39139048 3.00211699,6.97081905 C1.11855865,9.58973968 -0.00015165526,12.8562794 -0.00015165526,16.3996444 C-0.00015165526,22.7325968 3.57132974,28.1837714 8.70233273,30.6284698 C10.5034917,31.3426286 12.3445866,31.7896127 14.0496972,31.9816127 C14.1042931,31.9877079 14.1593945,31.9943111 14.2134849,31.9998984 C14.2074187,31.9958349 14.2013525,31.9917714 14.1952863,31.9872 C13.9470772,31.819581 13.7150446,31.6504381 13.5254755,31.4904381" id="Fill-11"></path>
                </g>
            </g>
        </g>
    </g>
</svg>