<svg xmlns="http://www.w3.org/2000/svg" width="24" height="24" viewBox="0 0 24 24">
  <path fill="#B8BDBF" fill-rule="evenodd" d="M893,108 C889.134158,108 886.00001,111.145455 886.00001,115.026364 C885.998199,116.705455 886.246323,117.869091 887.196257,119.395455 C888.146191,120.920909 893,128 893,128 C893,128 897.853809,120.920909 898.803743,119.395455 C899.753677,117.869091 900.001801,116.705455 899.99999,115.026364 C899.99999,111.145455 896.865842,108 893,108 L893,108 Z M893.015749,118.636364 L892.999999,118.636364 L892.984249,118.636364 C891.057501,118.636364 889.497378,117.162864 889.500003,115.131989 C889.502628,113.100239 891.067126,111.636364 892.994749,111.636364 L892.999999,111.636364 L893.006124,111.636364 C894.932871,111.636364 896.497369,113.100239 896.499994,115.131989 C896.503494,117.162864 894.942496,118.636364 893.015749,118.636364 L893.015749,118.636364 Z" transform="translate(-881 -106)"/>
</svg>
