<?xml version="1.0" encoding="UTF-8" standalone="no"?>
<svg width="20px" height="20px" viewBox="0 0 20 20" version="1.1" xmlns="http://www.w3.org/2000/svg" xmlns:xlink="http://www.w3.org/1999/xlink">
    <!-- Generator: Sketch 3.7 (28169) - http://www.bohemiancoding.com/sketch -->
    <title>icon/20/icon-check-circle</title>
    <desc>Created with Sketch.</desc>
    <defs></defs>
    <g id="Output-svg" stroke="none" stroke-width="1" fill="none" fill-rule="evenodd">
        <g id="out" transform="translate(-797.000000, -29.000000)" fill="#B8BDBF">
            <path d="M806.999588,31 C802.581647,31 799,34.5822863 799,39 C799,43.4185376 802.581647,47 806.999588,47 C811.418353,47 815,43.4185376 815,39 C815,34.5822863 811.418353,31 806.999588,31 L806.999588,31 Z M806.542504,41.4981723 C806.265748,41.7672759 805.816641,41.7672759 805.539885,41.4981723 L803.664741,39.6748741 C803.311753,39.3316461 803.311753,38.7757134 803.664741,38.4332911 L803.677999,38.4203999 C804.030158,38.0779775 804.601899,38.0779775 804.954058,38.4212056 L806.041195,39.4790891 L809.046563,36.5568167 C809.399551,36.2143944 809.970464,36.2143944 810.322623,36.5568167 L810.335881,36.5697079 C810.68804,36.9121303 810.68804,37.4672573 810.335881,37.8096796 L806.542504,41.4981723 Z" id="path"></path>
        </g>
    </g>
</svg>