<?xml version="1.0" encoding="UTF-8" standalone="no"?>
<svg width="24px" height="24px" viewBox="0 0 24 24" version="1.1" xmlns="http://www.w3.org/2000/svg" xmlns:xlink="http://www.w3.org/1999/xlink">
    <!-- Generator: Sketch 3.8.3 (29802) - http://www.bohemiancoding.com/sketch -->
    <title>icon/24/icon-conter</title>
    <desc>Created with Sketch.</desc>
    <defs></defs>
    <g id="Output-svg" stroke="none" stroke-width="1" fill="none" fill-rule="evenodd">
        <g id="out" transform="translate(-798.000000, -106.000000)" fill="#B8BDBF">
            <path d="M813.0191,120.3981 C812.5581,120.3981 812.1831,120.7981 812.1831,121.2921 C812.1831,121.7851 812.5581,122.1851 813.0191,122.1851 C813.4801,122.1851 813.8551,121.7851 813.8551,121.2921 C813.8551,120.7981 813.4801,120.3981 813.0191,120.3981 M817.5691,125.7301 L814.4581,125.7301 C813.3431,125.7301 812.4361,124.8271 812.4361,123.7161 L812.4361,123.4211 C811.5321,123.1611 810.8951,122.2971 810.8951,121.2921 C810.8951,120.0741 811.8461,119.0831 813.0151,119.0831 C814.1761,119.0831 815.1211,120.0741 815.1211,121.2921 C815.1211,122.2341 814.5521,123.0631 813.7171,123.3721 L813.7171,123.7161 C813.7171,124.0971 814.0491,124.4071 814.4581,124.4071 L817.5691,124.4071 C817.9201,124.4071 818.2061,124.7041 818.2061,125.0691 C818.2061,125.4331 817.9201,125.7301 817.5691,125.7301 Z M816.3902,118.504 C815.4672,118.504 814.6492,117.862 814.3762,116.952 L813.4382,116.952 C812.3292,116.952 811.3942,116.027 811.3942,114.933 L811.3942,111.056 C811.3942,110.625 811.1402,110.323 810.7772,110.323 L807.2492,110.323 C806.8982,110.323 806.6132,110.026 806.6132,109.662 C806.6132,109.297 806.8982,109 807.2492,109 L810.7772,109 C811.8412,109 812.6752,109.903 812.6752,111.056 L812.6752,114.933 C812.6752,115.311 813.0252,115.629 813.4382,115.629 L814.3752,115.629 C814.6432,114.709 815.4452,114.083 816.3902,114.083 C817.5532,114.083 818.4992,115.075 818.4992,116.294 C818.4992,117.513 817.5532,118.504 816.3902,118.504 Z M816.3902,115.399 C815.9292,115.399 815.5542,115.8 815.5542,116.293 C815.5542,116.786 815.9292,117.187 816.3902,117.187 C816.8502,117.187 817.2252,116.786 817.2252,116.293 C817.2252,115.8 816.8502,115.399 816.3902,115.399 Z M809.301,127.5003 C808.948,127.5003 808.66,127.2053 808.66,126.8423 L808.66,114.3263 C808.66,113.9203 808.369,113.6153 807.984,113.6153 L804.107,113.6153 C803.82,114.5113 803.024,115.1203 802.109,115.1203 C800.946,115.1203 800,114.1343 800,112.9203 C800,111.6983 800.946,110.7033 802.109,110.7033 C803.062,110.7033 803.885,111.3603 804.138,112.2923 L807.984,112.2923 C809.082,112.2923 809.942,113.1853 809.942,114.3263 L809.942,126.8423 C809.942,127.2053 809.654,127.5003 809.301,127.5003 Z M802.109,112.0353 C801.649,112.0353 801.274,112.4363 801.274,112.9293 C801.274,113.4223 801.649,113.8233 802.109,113.8233 C802.57,113.8233 802.945,113.4223 802.945,112.9293 C802.945,112.4363 802.57,112.0353 802.109,112.0353 Z M803.9913,125.7306 L800.8863,125.7306 C800.5353,125.7306 800.2493,125.4336 800.2493,125.0686 C800.2493,124.7036 800.5353,124.4066 800.8863,124.4066 L803.9913,124.4066 C804.3703,124.4066 804.6243,124.1296 804.6243,123.7166 L804.6243,120.1166 C803.7683,119.8196 803.1873,118.9856 803.1873,118.0216 C803.1873,116.8036 804.1353,115.8126 805.3023,115.8126 C806.4643,115.8126 807.4103,116.8036 807.4103,118.0216 C807.4103,118.9796 806.7763,119.8526 805.9053,120.1356 L805.9053,123.7166 C805.9053,124.8646 805.0823,125.7306 803.9913,125.7306 Z M805.3023,117.1276 C804.8413,117.1276 804.4663,117.5286 804.4663,118.0216 C804.4663,118.5146 804.8413,118.9156 805.3023,118.9156 C805.7623,118.9156 806.1373,118.5146 806.1373,118.0216 C806.1373,117.5286 805.7623,117.1276 805.3023,117.1276 Z" id="path"></path>
        </g>
    </g>
</svg>