<?xml version="1.0" encoding="UTF-8" standalone="no"?>
<svg width="24px" height="24px" viewBox="0 0 24 24" version="1.1" xmlns="http://www.w3.org/2000/svg" xmlns:xlink="http://www.w3.org/1999/xlink">
    <!-- Generator: Sketch 3.8.3 (29802) - http://www.bohemiancoding.com/sketch -->
    <title>icon/24/icon-cpu</title>
    <desc>Created with Sketch.</desc>
    <defs></defs>
    <g id="Output-svg" stroke="none" stroke-width="1" fill="none" fill-rule="evenodd">
        <g id="out" transform="translate(-702.000000, -106.000000)" fill="#B8BDBF">
            <path d="M719.833333,123 C719.833333,123.459167 719.46,123.833333 719,123.833333 L709,123.833333 C708.54,123.833333 708.166667,123.459167 708.166667,123 L708.166667,113 C708.166667,112.540833 708.54,112.166667 709,112.166667 L719,112.166667 C719.46,112.166667 719.833333,112.540833 719.833333,113 L719.833333,123 Z M724,114.666667 L724,113 L721.5,113 C721.5,111.621667 720.378333,110.5 719,110.5 L719,108 L717.333333,108 L717.333333,110.5 L714.833333,110.5 L714.833333,108 L713.166667,108 L713.166667,110.5 L710.666667,110.5 L710.666667,108 L709,108 L709,110.5 C707.621667,110.5 706.5,111.621667 706.5,113 L704,113 L704,114.666667 L706.5,114.666667 L706.5,117.166667 L704,117.166667 L704,118.833333 L706.5,118.833333 L706.5,121.333333 L704,121.333333 L704,123 L706.5,123 C706.5,124.378333 707.621667,125.5 709,125.5 L709,128 L710.666667,128 L710.666667,125.5 L713.166667,125.5 L713.166667,128 L714.833333,128 L714.833333,125.5 L717.333333,125.5 L717.333333,128 L719,128 L719,125.5 C720.378333,125.5 721.5,124.378333 721.5,123 L724,123 L724,121.333333 L721.5,121.333333 L721.5,118.833333 L724,118.833333 L724,117.166667 L721.5,117.166667 L721.5,114.666667 L724,114.666667 Z" id="path"></path>
        </g>
    </g>
</svg>