<?xml version="1.0" encoding="UTF-8" standalone="no"?>
<svg width="20px" height="20px" viewBox="0 0 20 20" version="1.1" xmlns="http://www.w3.org/2000/svg" xmlns:xlink="http://www.w3.org/1999/xlink">
    <!-- Generator: Sketch 3.7 (28169) - http://www.bohemiancoding.com/sketch -->
    <title>icon/20/icon-copy</title>
    <desc>Created with Sketch.</desc>
    <defs></defs>
    <g id="Output-svg" stroke="none" stroke-width="1" fill="none" fill-rule="evenodd">
        <g id="out" transform="translate(-717.000000, -29.000000)" fill="#B8BDBF">
            <path d="M729.356427,33.4854478 C728.794597,33.3407124 728.403351,32.8718957 728.403351,32.2882346 L728.403351,31.801326 C728.403351,30.8062704 727.600513,30 726.611443,30 L726.575448,30 C725.585595,30 724.784322,30.8062704 724.784322,31.801326 L724.784322,32.2929543 C724.784322,32.8726823 724.395423,33.3407124 723.837506,33.4878076 C723.110571,33.6773795 722.574563,34.3821778 722.574563,35.172716 L722.574563,35.194741 C722.574563,35.4889313 722.811658,35.7272727 723.104311,35.7272727 L730.097447,35.7272727 C730.390099,35.7272727 730.627195,35.4889313 730.627195,35.194741 L730.627195,35.172716 C730.627195,34.379818 730.087275,33.6734465 729.356427,33.4854478 Z M728.663158,43.0914214 C728.663158,43.5432914 728.32771,43.9090909 727.912393,43.9090909 L723.776141,43.9090909 C723.362703,43.9090909 723.026316,43.5432914 723.026316,43.0914214 C723.026316,42.6395514 723.362703,42.2727273 723.776141,42.2727273 L727.912393,42.2727273 C728.32771,42.2727273 728.663158,42.6395514 728.663158,43.0914214 Z M730.273684,38.1823305 C730.273684,38.6342005 729.987278,39 729.634469,39 L723.664731,39 C723.312722,39 723.026316,38.6342005 723.026316,38.1823305 C723.026316,37.7304605 723.312722,37.3636364 723.664731,37.3636364 L729.634469,37.3636364 C729.987278,37.3636364 730.273684,37.7304605 730.273684,38.1823305 Z M730.273684,40.6363636 C730.273684,41.0879508 729.987278,41.4545455 729.634469,41.4545455 L723.664731,41.4545455 C723.312722,41.4545455 723.026316,41.0879508 723.026316,40.6363636 C723.026316,40.1847764 723.312722,39.8181818 723.664731,39.8181818 L729.634469,39.8181818 C729.987278,39.8181818 730.273684,40.1847764 730.273684,40.6363636 Z M729.935455,30.8181818 L729.935455,31.6583705 C729.935455,32.064176 730.276131,32.3932294 730.695425,32.3932294 L732.156191,32.3932294 C732.436847,32.3932294 732.665092,32.6128706 732.665092,32.8847684 L732.665092,45.9350464 C732.665092,46.2069442 732.436847,46.4265854 732.156191,46.4265854 L721.144654,46.4265854 C720.863998,46.4265854 720.636599,46.2069442 720.636599,45.9350464 L720.636599,32.8847684 C720.636599,32.6128706 720.863998,32.3932294 721.144654,32.3932294 L722.60542,32.3932294 C723.025559,32.3932294 723.366236,32.064176 723.366236,31.6583705 L723.366236,30.8181818 L720.16912,30.8181818 C719.523272,30.8181818 719,31.3236015 719,31.947415 L719,46.8707668 C719,47.4945804 719.523272,48 720.16912,48 L733.13088,48 C733.776728,48 734.3,47.4945804 734.3,46.8707668 L734.3,31.947415 C734.3,31.3236015 733.776728,30.8181818 733.13088,30.8181818 L729.935455,30.8181818 Z" id="path"></path>
        </g>
    </g>
</svg>