<?xml version="1.0" encoding="UTF-8" standalone="no"?>
<svg width="18px" height="19px" viewBox="0 0 18 19" version="1.1" xmlns="http://www.w3.org/2000/svg" xmlns:xlink="http://www.w3.org/1999/xlink" xmlns:sketch="http://www.bohemiancoding.com/sketch/ns">
    <!-- Generator: Sketch 3.5.2 (25235) - http://www.bohemiancoding.com/sketch -->
    <title>icon/18/icon-grid-9</title>
    <desc>Created with Sketch.</desc>
    <defs></defs>
    <g id="out" stroke="none" stroke-width="1" fill="none" fill-rule="evenodd" sketch:type="MSPage">
        <path d="M1,13 L6,13 L6,17.8611111 L1,17.8611111 L1,13 L1,13 Z M1,7 L6,7 L6,11.8611111 L1,11.8611111 L1,7 L1,7 Z M1,1 L6,1 L6,5.86111111 L1,5.86111111 L1,1 L1,1 Z M7,13 L12,13 L12,17.8611111 L7,17.8611111 L7,13 L7,13 Z M7,7 L12,7 L12,11.8611111 L7,11.8611111 L7,7 L7,7 Z M7,1 L12,1 L12,5.86111111 L7,5.86111111 L7,1 L7,1 Z M13,13 L18,13 L18,17.8611111 L13,17.8611111 L13,13 L13,13 Z M13,7 L18,7 L18,11.8611111 L13,11.8611111 L13,7 L13,7 Z M13,1 L18,1 L18,5.86111111 L13,5.86111111 L13,1 L13,1 Z" id="path" fill="#000000" sketch:type="MSShapeGroup"></path>
    </g>
</svg>