<?xml version="1.0" encoding="UTF-8" standalone="no"?>
<svg width="24px" height="24px" viewBox="0 0 24 24" version="1.1" xmlns="http://www.w3.org/2000/svg" xmlns:xlink="http://www.w3.org/1999/xlink">
    <!-- Generator: Sketch 3.8.3 (29802) - http://www.bohemiancoding.com/sketch -->
    <title>icon/24/icon-net</title>
    <desc>Created with Sketch.</desc>
    <defs></defs>
    <g id="Output-svg" stroke="none" stroke-width="1" fill="none" fill-rule="evenodd">
        <g id="out" transform="translate(-750.000000, -106.000000)" fill="#B8BDBF">
            <path d="M769.65,125.2 C769.65,125.444 769.444,125.65 769.2,125.65 L754.8,125.65 C754.556,125.65 754.35,125.444 754.35,125.2 L754.35,110.8 C754.35,110.556 754.556,110.35 754.8,110.35 L769.2,110.35 C769.444,110.35 769.65,110.556 769.65,110.8 L769.65,125.2 Z M769.2,109 L754.8,109 C753.81,109 753,109.81 753,110.8 L753,125.2 C753,126.191 753.81,127 754.8,127 L769.2,127 C770.191,127 771,126.191 771,125.2 L771,110.8 C771,109.81 770.191,109 769.2,109 Z M766.95,119.3914 L766.2,119.3914 L764.85,119.3914 L764.85,120.7414 L764.85,122.0504 L759.151,122.0504 L759.151,120.7414 L759.151,119.3914 L757.801,119.3914 L757.05,119.3914 L757.05,113.9504 L758.271,113.9504 L758.271,117.4004 L759.771,117.4004 L759.771,113.9504 L761.25,113.9504 L761.25,117.4004 L762.75,117.4004 L762.75,113.9504 L764.229,113.9504 L764.229,117.4004 L765.729,117.4004 L765.729,113.9504 L766.95,113.9504 L766.95,119.3914 Z M768.217,113.1524 C768.169,113.0554 768.096,112.9694 768.014,112.8934 C768.005,112.8854 768.001,112.8734 767.991,112.8654 C767.801,112.7014 767.539,112.6004 767.251,112.6004 L765.729,112.6004 L764.229,112.6004 L762.75,112.6004 L761.25,112.6004 L759.771,112.6004 L758.271,112.6004 L756.75,112.6004 C756.173,112.6004 755.7,113.0064 755.7,113.5044 L755.7,119.8364 C755.7,120.3344 756.173,120.7414 756.75,120.7414 L757.801,120.7414 L757.801,122.4954 C757.801,122.7444 757.919,122.9714 758.109,123.1344 C758.204,123.2164 758.317,123.2834 758.442,123.3294 C758.568,123.3744 758.706,123.4004 758.85,123.4004 L765.15,123.4004 C765.479,123.4004 765.762,123.2604 765.955,123.0534 C766.1,122.8984 766.2,122.7104 766.2,122.4954 L766.2,120.7414 L767.251,120.7414 C767.539,120.7414 767.801,120.6394 767.991,120.4754 C768.181,120.3114 768.3,120.0854 768.3,119.8364 L768.3,113.5044 C768.3,113.3794 768.27,113.2604 768.217,113.1524 Z" id="path"></path>
        </g>
    </g>
</svg>