<?xml version="1.0" encoding="UTF-8" standalone="no"?>
<svg width="24px" height="24px" viewBox="0 0 24 24" version="1.1" xmlns="http://www.w3.org/2000/svg" xmlns:xlink="http://www.w3.org/1999/xlink">
    <!-- Generator: Sketch 3.8.3 (29802) - http://www.bohemiancoding.com/sketch -->
    <title>icon/24/icon-filter</title>
    <desc>Created with Sketch.</desc>
    <defs></defs>
    <g id="Output-temp" stroke="none" stroke-width="1" fill="none" fill-rule="evenodd">
        <g id="temp" transform="translate(-943.000000, -105.000000)" fill="#B8BDBF">
            <path d="M962.58853,109.979085 C962.346028,110.232235 962.007568,110.37644 961.663649,110.370986 L959.436244,110.370986 L954.982162,110.370986 L950.528566,110.370986 L948.302616,110.370479 C947.960639,110.366801 947.624969,110.212196 947.389139,109.953339 C947.176601,109.723271 947.049223,109.41736 947.031876,109.095342 L962.969692,109.095342 C962.952587,109.425985 962.815262,109.748003 962.58853,109.979085 L962.58853,109.979085 Z M963.535205,108.490371 C963.233308,108.186109 962.797442,108.004617 962.357048,108.000305 L959.909911,108.000051 L955.020965,108.000051 L950.131486,108.000051 L947.686347,108.000051 C947.470212,107.998402 947.246885,108.036578 947.044067,108.1161 C946.840183,108.194353 946.65268,108.312431 946.496071,108.459806 C946.18179,108.753161 945.998281,109.170554 946.000279,109.590231 C945.996417,109.79303 946.032639,110.008259 946.112541,110.202814 C946.191511,110.398257 946.312563,110.5781 946.46451,110.729661 C946.767739,111.033543 947.20254,111.214908 947.643999,111.219601 L948.103436,111.219601 L953.440501,118.963133 L953.440501,125.89065 L954.876342,125.89065 L956.559215,123.504947 L956.559215,118.963133 L961.896678,111.219601 L962.313368,111.219601 C962.529903,111.22163 962.753096,111.182947 962.955914,111.103679 C963.159798,111.025172 963.347435,110.907475 963.503377,110.759846 C963.818192,110.466872 964.002366,110.049732 963.999703,109.630055 C964.003698,109.426748 963.967476,109.2119 963.88744,109.016965 C963.808204,108.822282 963.687552,108.641424 963.535205,108.490371 Z" id="path"></path>
        </g>
    </g>
</svg>