<?xml version="1.0" encoding="UTF-8" standalone="no"?>
<svg width="18px" height="18px" viewBox="0 0 18 18" version="1.1" xmlns="http://www.w3.org/2000/svg" xmlns:xlink="http://www.w3.org/1999/xlink" xmlns:sketch="http://www.bohemiancoding.com/sketch/ns">
    <!-- Generator: Sketch 3.5.2 (25235) - http://www.bohemiancoding.com/sketch -->
    <title>icon/18/icon-legend</title>
    <desc>Created with Sketch.</desc>
    <defs></defs>
    <g id="out" stroke="none" stroke-width="1" fill="none" fill-rule="evenodd" sketch:type="MSPage">
        <path d="M2.93912168,7.71519441 C2.32925394,7.71519441 1.83695105,8.20749729 1.83695105,8.81736504 C1.83695105,9.42723278 2.32925394,9.91953568 2.93912168,9.91953568 C3.54898943,9.91953568 4.04129231,9.42723278 4.04129231,8.81736504 C4.04129231,8.20749729 3.54898943,7.71519441 2.93912168,7.71519441 L2.93912168,7.71519441 L2.93912168,7.71519441 Z M2.93912168,3.3065119 C2.32925394,3.3065119 1.83695105,3.79881478 1.83695105,4.40868252 C1.83695105,5.01855027 2.32925394,5.51085315 2.93912168,5.51085315 C3.54898943,5.51085315 4.04129231,5.01855027 4.04129231,4.40868252 C4.04129231,3.79881478 3.54898943,3.3065119 2.93912168,3.3065119 L2.93912168,3.3065119 L2.93912168,3.3065119 Z M2.93912168,12.2487896 C2.39538417,12.2487896 1.96186372,12.6896579 1.96186372,13.2260475 C1.96186372,13.7624372 2.40273197,14.2033055 2.93912168,14.2033055 C3.47551139,14.2033055 3.91637964,13.7624372 3.91637964,13.2260475 C3.91637964,12.6896579 3.48285919,12.2487896 2.93912168,12.2487896 L2.93912168,12.2487896 L2.93912168,12.2487896 Z M5.14346294,13.960828 L15.4303888,13.960828 L15.4303888,12.4912672 L5.14346294,12.4912672 L5.14346294,13.960828 L5.14346294,13.960828 L5.14346294,13.960828 Z M5.14346294,9.55214546 L15.4303888,9.55214546 L15.4303888,8.08258462 L5.14346294,8.08258462 L5.14346294,9.55214546 L5.14346294,9.55214546 L5.14346294,9.55214546 Z M5.14346294,3.6739021 L5.14346294,5.14346294 L15.4303888,5.14346294 L15.4303888,3.6739021 L5.14346294,3.6739021 L5.14346294,3.6739021 L5.14346294,3.6739021 Z" id="path" fill="#000000" sketch:type="MSShapeGroup"></path>
    </g>
</svg>