<?xml version="1.0" encoding="UTF-8" standalone="no"?>
<svg width="18px" height="18px" viewBox="0 0 18 18" version="1.1" xmlns="http://www.w3.org/2000/svg" xmlns:xlink="http://www.w3.org/1999/xlink" xmlns:sketch="http://www.bohemiancoding.com/sketch/ns">
    <!-- Generator: Sketch 3.5.2 (25235) - http://www.bohemiancoding.com/sketch -->
    <title>icon/18/icon-duplicate</title>
    <desc>Created with Sketch.</desc>
    <defs></defs>
    <g id="out" stroke="none" stroke-width="1" fill="none" fill-rule="evenodd" sketch:type="MSPage">
        <path d="M13.6666667,4 L6.33333333,4 C5.6,4 5,4.6 5,5.33333333 L5,14.6666667 C5,15.4 5.6,16 6.33333333,16 L13.6666667,16 C14.4,16 15,15.4 15,14.6666667 L15,5.33333333 C15,4.6 14.4,4 13.6666667,4 L13.6666667,4 Z M6,5 L14,5 L14,15 L6,15 L6,5 L6,5 Z M4.03408486,13.9659151 C3.4435752,13.8291651 3,13.297202 3,12.6666667 L3,3.33333333 C3,2.6 3.6,2 4.33333333,2 L11.6666667,2 C12.297202,2 12.8291651,2.4435752 12.9659151,3.03408486 C12.8696426,3.01179011 12.7694647,3 12.6666667,3 L8.66666667,3 L4,3 L4,8.66666667 L4,13.6666667 C4,13.7694647 4.01179011,13.8696426 4.03408486,13.9659151 L4.03408486,13.9659151 Z" id="path" fill="#000000" sketch:type="MSShapeGroup"></path>
    </g>
</svg>