<?xml version="1.0" encoding="UTF-8" standalone="no"?>
<svg width="28px" height="28px" viewBox="0 0 28 28" version="1.1" xmlns="http://www.w3.org/2000/svg" xmlns:xlink="http://www.w3.org/1999/xlink" xmlns:sketch="http://www.bohemiancoding.com/sketch/ns">
    <!-- Generator: Sketch 3.5.2 (25235) - http://www.bohemiancoding.com/sketch -->
    <title>icon/28/icon-eye</title>
    <desc>Created with Sketch.</desc>
    <defs></defs>
    <g id="out" stroke="none" stroke-width="1" fill="none" fill-rule="evenodd" sketch:type="MSPage">
        <path d="M14,5.25 C8.16666667,5.25 3.185,8.87833333 1.16666667,14 C3.185,19.1216667 8.16666667,22.75 14,22.75 C19.8333333,22.75 24.815,19.1216667 26.8333333,14 C24.815,8.87833333 19.8333333,5.25 14,5.25 L14,5.25 L14,5.25 Z M14,19.8333333 C10.78,19.8333333 8.16666667,17.22 8.16666667,14 C8.16666667,10.78 10.78,8.16666667 14,8.16666667 C17.22,8.16666667 19.8333333,10.78 19.8333333,14 C19.8333333,17.22 17.22,19.8333333 14,19.8333333 L14,19.8333333 L14,19.8333333 Z M14,10.5 C12.0633333,10.5 10.5,12.0633333 10.5,14 C10.5,15.9366667 12.0633333,17.5 14,17.5 C15.9366667,17.5 17.5,15.9366667 17.5,14 C17.5,12.0633333 15.9366667,10.5 14,10.5 L14,10.5 L14,10.5 Z" id="path" fill="#000000" sketch:type="MSShapeGroup"></path>
    </g>
</svg>