<?xml version="1.0" encoding="UTF-8" standalone="no"?>
<svg width="24px" height="24px" viewBox="0 0 24 24" version="1.1" xmlns="http://www.w3.org/2000/svg" xmlns:xlink="http://www.w3.org/1999/xlink" xmlns:sketch="http://www.bohemiancoding.com/sketch/ns">
    <!-- Generator: Sketch 3.5.2 (25235) - http://www.bohemiancoding.com/sketch -->
    <title>icon/24/icon-board</title>
    <desc>Created with Sketch.</desc>
    <defs></defs>
    <g id="out" stroke="none" stroke-width="1" fill="none" fill-rule="evenodd" sketch:type="MSPage">
        <path d="M18.432,5 L4.608,5 C3.6576,5 2.88864,5.80999998 2.88864,6.79999995 L2.88,17.5999997 C2.88,18.5899996 3.6576,19.3999996 4.608,19.3999996 L18.432,19.3999996 C19.3824,19.3999996 20.16,18.5899996 20.16,17.5999997 L20.16,6.79999995 C20.16,5.80999998 19.3824,5 18.432,5 L18.432,5 L18.432,5 Z M14.112,17.5999997 L4.608,17.5999997 L4.608,13.9999998 L14.112,13.9999998 L14.112,17.5999997 L14.112,17.5999997 L14.112,17.5999997 Z M14.112,13.0999998 L4.608,13.0999998 L4.608,9.49999988 L14.112,9.49999988 L14.112,13.0999998 L14.112,13.0999998 L14.112,13.0999998 Z M18.432,17.5999997 L14.976,17.5999997 L14.976,9.49999988 L18.432,9.49999988 L18.432,17.5999997 L18.432,17.5999997 L18.432,17.5999997 Z" id="path" fill="#000000" sketch:type="MSShapeGroup" transform="translate(11.520000, 12.200000) scale(-1, 1) translate(-11.520000, -12.200000) "></path>
    </g>
</svg>