<?xml version="1.0" encoding="UTF-8" standalone="no"?>
<svg width="24px" height="24px" viewBox="0 0 24 24" version="1.1" xmlns="http://www.w3.org/2000/svg" xmlns:xlink="http://www.w3.org/1999/xlink">
    <!-- Generator: Sketch 3.8.3 (29802) - http://www.bohemiancoding.com/sketch -->
    <title>icon/24/icon-disk</title>
    <desc>Created with Sketch.</desc>
    <defs></defs>
    <g id="Output-svg" stroke="none" stroke-width="1" fill="none" fill-rule="evenodd">
        <g id="out" transform="translate(-606.000000, -106.000000)" fill="#B8BDBF">
            <path d="M624.666667,125.363636 L611.333333,125.363636 C610.414167,125.363636 609.666667,124.629727 609.666667,123.727273 C609.666667,123.596364 609.681667,123.467091 609.713333,123.342727 L609.713333,123.341091 C609.893333,122.604727 610.56,122.090909 611.333333,122.090909 L624.666667,122.090909 C625.438333,122.090909 626.103333,122.603091 626.285,123.335364 L626.286667,123.342727 L626.2875,123.342727 C626.3175,123.469545 626.333333,123.598818 626.333333,123.727273 C626.333333,124.629727 625.585,125.363636 624.666667,125.363636 L624.666667,125.363636 Z M612.668333,111.263909 C612.76,110.894091 613.093333,110.636364 613.48,110.636364 L622.52,110.636364 C622.906667,110.636364 623.239167,110.894091 623.329167,111.263909 L625.615,120.597727 C625.311667,120.510182 624.995833,120.454545 624.666667,120.454545 L611.333333,120.454545 C611.004167,120.454545 610.6875,120.510182 610.385,120.597727 L612.668333,111.263909 Z M627.908333,122.960636 L627.908333,122.959818 L624.950833,110.881 C624.68,109.773182 623.68,109 622.52,109 L613.48,109 C612.32,109 611.320833,109.773182 611.048333,110.881 L608.091667,122.959818 L608.0925,122.960636 C608.030833,123.209364 608,123.467091 608,123.727273 C608,125.532182 609.495,127 611.333333,127 L624.666667,127 C626.505,127 628,125.532182 628,123.727273 C628,123.470364 627.969167,123.213455 627.908333,122.960636 Z M611.333333,124.5457 L614.666667,124.5457 L614.666667,122.909336 L611.333333,122.909336 L611.333333,124.5457 Z" id="path"></path>
        </g>
    </g>
</svg>