<?xml version="1.0" encoding="UTF-8" standalone="no"?>
<svg width="24px" height="24px" viewBox="0 0 24 24" version="1.1" xmlns="http://www.w3.org/2000/svg" xmlns:xlink="http://www.w3.org/1999/xlink">
    <!-- Generator: Sketch 3.8.1 (29687) - http://www.bohemiancoding.com/sketch -->
    <title>icon/24/linechart</title>
    <desc>Created with Sketch.</desc>
    <defs></defs>
    <g id="Output-svg" stroke="none" stroke-width="1" fill="none" fill-rule="evenodd">
        <g id="out" transform="translate(-278.000000, -179.000000)" fill="#B8BDBF">
            <path d="M300,197.25 L300,198.5 L280,198.5 L280,183.5 L281.25,183.5 L281.25,197.25 L300,197.25 Z M298.750001,185.0625 L298.750001,189.310547 C298.750001,189.447265 298.686524,189.543295 298.559571,189.598634 C298.432617,189.653971 298.317058,189.629559 298.212891,189.52539 L297.03125,188.34375 L290.849609,194.525391 C290.784504,194.590496 290.709637,194.623048 290.625,194.623048 C290.540364,194.623048 290.465495,194.590496 290.40039,194.525391 L288.125001,192.25 L284.0625,196.3125 L282.1875,194.4375 L287.90039,188.724609 C287.965495,188.659505 288.040364,188.626953 288.125001,188.626953 C288.209635,188.626953 288.284505,188.659505 288.349609,188.724609 L290.625,191.000001 L295.156249,186.46875 L293.97461,185.287109 C293.870443,185.182942 293.846029,185.067383 293.901368,184.940429 C293.956705,184.813475 294.052734,184.750001 294.189453,184.750001 L298.437499,184.750001 C298.528646,184.750001 298.603515,184.779296 298.66211,184.83789 C298.720704,184.896484 298.750001,184.971354 298.750001,185.0625 L298.750001,185.0625 Z" id="path"></path>
        </g>
    </g>
</svg>