<?xml version="1.0" encoding="UTF-8" standalone="no"?>
<svg width="18px" height="18px" viewBox="0 0 18 18" version="1.1" xmlns="http://www.w3.org/2000/svg" xmlns:xlink="http://www.w3.org/1999/xlink">
    <!-- Generator: Sketch 3.8.3 (29802) - http://www.bohemiancoding.com/sketch -->
    <title>icon/18/icon-radio-active</title>
    <desc>Created with Sketch.</desc>
    <defs></defs>
    <g id="Output-svg" stroke="none" stroke-width="1" fill="none" fill-rule="evenodd">
        <g id="out" transform="translate(-232.000000, -377.000000)" fill="#6C7173">
            <path d="M248,386 C248,382.134007 244.865993,379 241,379 C237.134007,379 234,382.134007 234,386 C234,389.865993 237.134007,393 241,393 C244.865993,393 248,389.865993 248,386 Z M236.333333,386 C236.333333,383.422671 238.422671,381.333333 241,381.333333 C243.577329,381.333333 245.666667,383.422671 245.666667,386 C245.666667,388.577329 243.577329,390.666667 241,390.666667 C238.422671,390.666667 236.333333,388.577329 236.333333,386 Z M241,388.870614 C242.585396,388.870614 243.870614,387.585396 243.870614,386 C243.870614,384.414604 242.585396,383.129386 241,383.129386 C239.414604,383.129386 238.129386,384.414604 238.129386,386 C238.129386,387.585396 239.414604,388.870614 241,388.870614 Z" id="path"></path>
        </g>
    </g>
</svg>