<?xml version="1.0" encoding="UTF-8" standalone="no"?>
<svg width="18px" height="18px" viewBox="0 0 18 18" version="1.1" xmlns="http://www.w3.org/2000/svg" xmlns:xlink="http://www.w3.org/1999/xlink" xmlns:sketch="http://www.bohemiancoding.com/sketch/ns">
    <!-- Generator: Sketch 3.5.2 (25235) - http://www.bohemiancoding.com/sketch -->
    <title>icon/18/icon-enlarge</title>
    <desc>Created with Sketch.</desc>
    <defs></defs>
    <g id="out" stroke="none" stroke-width="1" fill="none" fill-rule="evenodd" sketch:type="MSPage">
        <path d="M11.6569197,9.96878873 L11.0595168,9.96878873 L10.847779,9.77535912 C11.5888611,8.95865635 12.0350229,7.89837557 12.0350229,6.74496201 C12.0350229,4.17306471 9.83446261,2.08832344 7.11968213,2.08832344 C4.40490164,2.08832344 2.20434141,4.17306471 2.20434141,6.74496201 C2.20434141,9.31685932 4.40490164,11.4016006 7.11968213,11.4016006 C8.33717422,11.4016006 9.45635948,10.9789211 10.3184346,10.2768433 L10.5226103,10.4774369 L10.5226103,11.0433976 L14.3036417,14.6182632 L15.4303889,13.5508184 L11.6569197,9.96878873 L11.6569197,9.96878873 L11.6569197,9.96878873 Z M7.11968213,9.96878873 C5.23672853,9.96878873 3.71675394,8.5288128 3.71675394,6.74496201 C3.71675394,4.96111124 5.23672853,3.52113531 7.11968213,3.52113531 C9.00263573,3.52113531 10.5226103,4.96111124 10.5226103,6.74496201 C10.5226103,8.5288128 9.00263573,9.96878873 7.11968213,9.96878873 Z M6.47123526,6.26497004 L4.40868268,6.26497004 L4.40868268,7.33957894 L6.47123526,7.33957894 L6.47123526,8.87537416 L7.88912201,8.87537416 L7.88912201,7.33957894 L9.91953582,7.33957894 L9.91953582,6.26497004 L7.88912201,6.26497004 L7.88912201,4.69872757 L6.47123526,4.69872757 L6.47123526,6.26497004 Z" id="path" fill="#000000" sketch:type="MSShapeGroup"></path>
    </g>
</svg>