<?xml version="1.0" encoding="UTF-8" standalone="no"?>
<svg width="24px" height="24px" viewBox="0 0 24 24" version="1.1" xmlns="http://www.w3.org/2000/svg" xmlns:xlink="http://www.w3.org/1999/xlink">
    <!-- Generator: Sketch 3.8.3 (29802) - http://www.bohemiancoding.com/sketch -->
    <title>icon/24/icon-memory</title>
    <desc>Created with Sketch.</desc>
    <defs></defs>
    <g id="Output-svg" stroke="none" stroke-width="1" fill="none" fill-rule="evenodd">
        <g id="out" transform="translate(-654.000000, -106.000000)" fill="#B8BDBF">
            <path d="M668.17,108.596667 L656.596667,120.17 C655.801111,120.965556 655.801111,122.267778 656.596667,123.063333 L660.936667,127.403333 C661.732222,128.198889 663.034444,128.198889 663.83,127.403333 L666.182222,125.051111 L665.097778,123.965556 L662.745556,126.317778 C662.548889,126.514444 662.217778,126.514444 662.022222,126.317778 L657.682222,121.977778 C657.485556,121.782222 657.485556,121.451111 657.682222,121.254444 L669.254444,109.681111 C669.451111,109.485556 669.782222,109.485556 669.977778,109.681111 L674.317778,114.021111 C674.514444,114.217778 674.514444,114.548889 674.317778,114.744444 L671.96,117.103333 L673.044444,118.187778 L675.403333,115.83 C676.198889,115.034444 676.198889,113.732222 675.403333,112.936667 L671.063333,108.596667 C670.267778,107.801111 668.965556,107.801111 668.17,108.596667 Z M670.642778,118.420444 L666.413889,122.649333 L667.499444,123.733778 L671.728333,119.506 L670.642778,118.420444 Z M671.895,114.149556 L670.480556,115.564 L667.877222,112.961778 L669.291667,111.546222 L671.895,114.149556 Z M669.118222,116.926333 L667.703778,118.340778 L665.100444,115.738556 L666.514889,114.323 L669.118222,116.926333 Z M666.341333,119.703111 L664.926889,121.117556 L662.323556,118.515333 L663.738,117.099778 L666.341333,119.703111 Z M663.564556,122.48 L662.150111,123.894444 L659.546778,121.292222 L660.961222,119.876667 L663.564556,122.48 Z" id="path"></path>
        </g>
    </g>
</svg>