<?xml version="1.0" encoding="UTF-8" standalone="no"?>
<svg width="24px" height="24px" viewBox="0 0 24 24" version="1.1" xmlns="http://www.w3.org/2000/svg" xmlns:xlink="http://www.w3.org/1999/xlink">
    <!-- Generator: Sketch 3.8.3 (29802) - http://www.bohemiancoding.com/sketch -->
    <title>icon/24/icon-top10</title>
    <desc>Created with Sketch.</desc>
    <defs></defs>
    <g id="Output-svg" stroke="none" stroke-width="1" fill="none" fill-rule="evenodd">
        <g id="out" transform="translate(-677.000000, -105.000000)" fill="#B8BDBF">
            <path d="M692.707766,121.63582 C692.667766,121.97982 692.603766,122.27682 692.516766,122.52382 C692.427766,122.77182 692.308766,122.96382 692.155766,123.09982 C692.003766,123.23682 691.815766,123.30382 691.592766,123.30382 C691.367766,123.30382 691.182766,123.23682 691.033766,123.09982 C690.885766,122.96382 690.766766,122.77182 690.674766,122.52382 C690.581766,122.27682 690.516766,121.97982 690.476766,121.63582 C690.436766,121.29182 690.415766,120.91182 690.415766,120.49582 C690.415766,120.07982 690.436766,119.70182 690.476766,119.36182 C690.516766,119.02182 690.581766,118.72782 690.674766,118.47982 C690.766766,118.23182 690.885766,118.03982 691.033766,117.90382 C691.182766,117.76782 691.367766,117.69882 691.592766,117.69882 C691.815766,117.69882 692.003766,117.76782 692.155766,117.90382 C692.308766,118.03982 692.427766,118.23182 692.516766,118.47982 C692.603766,118.72782 692.667766,119.02182 692.707766,119.36182 C692.747766,119.70182 692.768766,120.07982 692.768766,120.49582 C692.768766,120.91182 692.747766,121.29182 692.707766,121.63582 L692.707766,121.63582 Z M693.793766,117.28482 C693.261766,116.53782 692.527766,116.16382 691.592766,116.16382 C691.136766,116.16382 690.724766,116.25982 690.355766,116.45082 C689.987766,116.64382 689.671766,116.92382 689.407766,117.29182 C689.144766,117.65982 688.941766,118.11182 688.801766,118.64782 C688.661766,119.18382 688.591766,119.79982 688.591766,120.49582 C688.591766,121.89582 688.857766,122.96982 689.390766,123.71782 C689.921766,124.46582 690.655766,124.83982 691.592766,124.83982 C692.527766,124.83982 693.261766,124.46582 693.793766,123.71782 C694.325766,122.96982 694.592766,121.89582 694.592766,120.49582 C694.592766,119.10382 694.325766,118.03382 693.793766,117.28482 L693.793766,117.28482 Z M683.947766,119.46382 C684.228766,119.36682 684.515766,119.25382 684.811766,119.12182 C685.107766,118.98982 685.375766,118.84382 685.615766,118.68382 L685.615766,124.67182 L687.403766,124.67182 L687.403766,116.35582 L686.155766,116.35582 C685.979766,116.53982 685.781766,116.71382 685.561766,116.87782 C685.341766,117.04182 685.111766,117.19782 684.872766,117.34582 C684.631766,117.49382 684.385766,117.62982 684.133766,117.75382 C683.881766,117.87782 683.639766,117.98782 683.407766,118.08382 L683.947766,119.46382 Z M693.703766,111.57882 C693.850766,111.60582 693.977766,111.64882 694.085766,111.70882 C694.192766,111.76982 694.276766,111.85382 694.337766,111.96082 C694.397766,112.06882 694.427766,112.20082 694.427766,112.36082 C694.427766,112.69182 694.313766,112.91582 694.085766,113.03482 C693.856766,113.15482 693.529766,113.21382 693.105766,113.21382 L692.677766,113.21382 L692.677766,111.56182 C692.822766,111.54782 693.007766,111.54082 693.231766,111.54082 C693.399766,111.54082 693.556766,111.55382 693.703766,111.57882 L693.703766,111.57882 Z M692.478766,110.80282 C692.228766,110.81982 692.001766,110.85082 691.796766,110.89782 L691.796766,115.67782 L692.677766,115.67782 L692.677766,113.96982 L693.119766,113.96982 C693.473766,113.96982 693.789766,113.93982 694.064766,113.87882 C694.340766,113.81882 694.573766,113.72382 694.764766,113.59582 C694.956766,113.46682 695.101766,113.30182 695.202766,113.09882 C695.301766,112.89582 695.352766,112.65182 695.352766,112.36682 C695.352766,111.82182 695.165766,111.41982 694.789766,111.16282 C694.413766,110.90682 693.873766,110.77882 693.168766,110.77882 C692.958766,110.77882 692.728766,110.78582 692.478766,110.80282 L692.478766,110.80282 Z M687.491766,112.52882 C687.556766,112.31382 687.651766,112.12882 687.775766,111.97482 C687.898766,111.82182 688.049766,111.70182 688.226766,111.61782 C688.404766,111.53382 688.604766,111.49182 688.828766,111.49182 C689.047766,111.49182 689.246766,111.53382 689.423766,111.61782 C689.600766,111.70182 689.751766,111.82082 689.875766,111.97182 C689.998766,112.12282 690.092766,112.30782 690.158766,112.52482 C690.223766,112.74082 690.256766,112.98382 690.256766,113.24882 C690.256766,113.51482 690.223766,113.75682 690.158766,113.97382 C690.092766,114.19082 689.998766,114.37482 689.875766,114.52682 C689.751766,114.67782 689.600766,114.79582 689.423766,114.87982 C689.246766,114.96382 689.047766,115.00582 688.828766,115.00582 C688.604766,115.00582 688.404766,114.96382 688.226766,114.87982 C688.049766,114.79582 687.898766,114.67782 687.775766,114.52682 C687.651766,114.37482 687.556766,114.19082 687.491766,113.97382 C687.426766,113.75682 687.393766,113.51482 687.393766,113.24882 C687.393766,112.98382 687.426766,112.74282 687.491766,112.52882 L687.491766,112.52882 Z M690.991766,112.15382 C690.865766,111.83882 690.696766,111.57282 690.483766,111.35982 C690.271766,111.14482 690.022766,110.98382 689.738766,110.87582 C689.453766,110.76882 689.153766,110.71482 688.835766,110.71482 C688.518766,110.71482 688.217766,110.76882 687.932766,110.87582 C687.647766,110.98382 687.397766,111.14482 687.179766,111.35982 C686.963766,111.57282 686.791766,111.83882 686.665766,112.15382 C686.539766,112.46882 686.476766,112.83382 686.476766,113.24882 C686.476766,113.66382 686.539766,114.03082 686.665766,114.34782 C686.791766,114.66482 686.960766,114.93082 687.173766,115.14282 C687.385766,115.35482 687.634766,115.51482 687.922766,115.62182 C688.209766,115.72982 688.513766,115.78282 688.835766,115.78282 C689.157766,115.78282 689.460766,115.72982 689.745766,115.62182 C690.029766,115.51482 690.278766,115.35482 690.490766,115.14282 C690.703766,114.93082 690.871766,114.66482 690.994766,114.34782 C691.118766,114.03082 691.179766,113.66382 691.179766,113.24882 C691.179766,112.83382 691.117766,112.46882 690.991766,112.15382 L690.991766,112.15382 Z M682.647766,110.82682 L682.647766,111.58982 L684.138766,111.58982 L684.138766,115.67782 L685.027766,115.67782 L685.027766,111.58982 L686.518766,111.58982 L686.518766,110.82682 L682.647766,110.82682 Z M689.613766,107.62982 L690.173766,107.20582 C690.659766,106.83882 691.355766,106.97782 691.663766,107.50182 L692.019766,108.10782 C692.249766,108.50082 692.712766,108.69182 693.152766,108.57782 L693.832766,108.40082 C694.421766,108.24782 695.011766,108.64182 695.095766,109.24482 L695.192766,109.94082 C695.255766,110.39082 695.609766,110.74482 696.059766,110.80782 L696.755766,110.90482 C697.358766,110.98782 697.752766,111.57882 697.599766,112.16782 L697.422766,112.84782 C697.308766,113.28782 697.499766,113.75082 697.891766,113.98082 L698.497766,114.33682 C699.022766,114.64482 699.161766,115.34082 698.794766,115.82682 L698.370766,116.38682 C698.096766,116.74982 698.096766,117.25082 698.370766,117.61282 L698.794766,118.17382 C699.161766,118.65882 699.022766,119.35582 698.497766,119.66382 L697.891766,120.01982 C697.499766,120.24982 697.308766,120.71282 697.422766,121.15282 L697.599766,121.83282 C697.752766,122.42082 697.358766,123.01182 696.755766,123.09582 L696.059766,123.19282 C695.609766,123.25482 695.255766,123.60882 695.192766,124.05982 L695.095766,124.75582 C695.011766,125.35782 694.421766,125.75282 693.832766,125.59982 L693.152766,125.42282 C692.712766,125.30782 692.249766,125.49982 692.019766,125.89182 L691.663766,126.49782 C691.355766,127.02282 690.659766,127.16082 690.173766,126.79382 L689.613766,126.37082 C689.250766,126.09682 688.749766,126.09682 688.386766,126.37082 L687.826766,126.79382 C687.340766,127.16082 686.644766,127.02282 686.336766,126.49782 L685.980766,125.89182 C685.750766,125.49982 685.287766,125.30782 684.847766,125.42282 L684.167766,125.59982 C683.578766,125.75282 682.988766,125.35782 682.904766,124.75582 L682.807766,124.05982 C682.744766,123.60882 682.390766,123.25482 681.940766,123.19282 L681.244766,123.09582 C680.641766,123.01182 680.247766,122.42082 680.400766,121.83282 L680.577766,121.15282 C680.691766,120.71282 680.500766,120.24982 680.108766,120.01982 L679.502766,119.66382 C678.977766,119.35582 678.838766,118.65882 679.205766,118.17382 L679.629766,117.61282 C679.903766,117.25082 679.903766,116.74982 679.629766,116.38682 L679.205766,115.82682 C678.838766,115.34082 678.977766,114.64482 679.502766,114.33682 L680.108766,113.98082 C680.500766,113.75082 680.691766,113.28782 680.577766,112.84782 L680.400766,112.16782 C680.247766,111.57882 680.641766,110.98782 681.244766,110.90482 L681.940766,110.80782 C682.390766,110.74482 682.744766,110.39082 682.807766,109.94082 L682.904766,109.24482 C682.988766,108.64182 683.578766,108.24782 684.167766,108.40082 L684.847766,108.57782 C685.287766,108.69182 685.750766,108.50082 685.980766,108.10782 L686.336766,107.50182 C686.644766,106.97782 687.340766,106.83882 687.826766,107.20582 L688.386766,107.62982 C688.749766,107.90382 689.250766,107.90382 689.613766,107.62982 L689.613766,107.62982 Z" id="path"></path>
        </g>
    </g>
</svg>