<?xml version="1.0" encoding="UTF-8" standalone="no"?>
<svg width="28px" height="28px" viewBox="0 0 28 28" version="1.1" xmlns="http://www.w3.org/2000/svg" xmlns:xlink="http://www.w3.org/1999/xlink" xmlns:sketch="http://www.bohemiancoding.com/sketch/ns">
    <!-- Generator: Sketch 3.5.2 (25235) - http://www.bohemiancoding.com/sketch -->
    <title>icon/28/icon-hg</title>
    <desc>Created with Sketch.</desc>
    <defs></defs>
    <g id="out" stroke="none" stroke-width="1" fill="none" fill-rule="evenodd" sketch:type="MSPage">
        <path d="M2.33333333,23.3333333 L25.6666667,23.3333333 L25.6666667,18.6666667 L2.33333333,18.6666667 L2.33333333,23.3333333 L2.33333333,23.3333333 L2.33333333,23.3333333 Z M4.66666667,19.8333333 L7,19.8333333 L7,22.1666667 L4.66666667,22.1666667 L4.66666667,19.8333333 L4.66666667,19.8333333 L4.66666667,19.8333333 Z M2.33333333,4.66666667 L2.33333333,9.33333333 L25.6666667,9.33333333 L25.6666667,4.66666667 L2.33333333,4.66666667 L2.33333333,4.66666667 L2.33333333,4.66666667 Z M7,8.16666667 L4.66666667,8.16666667 L4.66666667,5.83333333 L7,5.83333333 L7,8.16666667 L7,8.16666667 L7,8.16666667 Z M2.33333333,16.3333333 L25.6666667,16.3333333 L25.6666667,11.6666667 L2.33333333,11.6666667 L2.33333333,16.3333333 L2.33333333,16.3333333 L2.33333333,16.3333333 Z M4.66666667,12.8333333 L7,12.8333333 L7,15.1666667 L4.66666667,15.1666667 L4.66666667,12.8333333 L4.66666667,12.8333333 L4.66666667,12.8333333 Z" id="path" fill="#000000" sketch:type="MSShapeGroup"></path>
    </g>
</svg>