<?xml version="1.0" encoding="UTF-8" standalone="no"?>
<svg width="20px" height="20px" viewBox="0 0 20 20" version="1.1" xmlns="http://www.w3.org/2000/svg" xmlns:xlink="http://www.w3.org/1999/xlink">
    <!-- Generator: Sketch 3.7 (28169) - http://www.bohemiancoding.com/sketch -->
    <title>icon/20/icon-open-in-new</title>
    <desc>Created with Sketch.</desc>
    <defs></defs>
    <g id="Output-svg" stroke="none" stroke-width="1" fill="none" fill-rule="evenodd">
        <g id="out" transform="translate(-838.000000, -29.000000)" fill="#B8BDBF">
            <path d="M855,46 L841,46 L841,32 L848,32 L848,30 L841,30 C839.89,30 839,30.9 839,32 L839,46 C839,47.1 839.89,48 841,48 L855,48 C856.1,48 857,47.1 857,46 L857,39 L855,39 L855,46 L855,46 Z M850,30 L850,32 L853.59,32 L843.76,41.83 L845.17,43.24 L855,33.41 L855,37 L857,37 L857,30 L850,30 L850,30 Z" id="path"></path>
        </g>
    </g>
</svg>