<?xml version="1.0" encoding="UTF-8" standalone="no"?>
<svg width="18px" height="19px" viewBox="0 0 18 19" version="1.1" xmlns="http://www.w3.org/2000/svg" xmlns:xlink="http://www.w3.org/1999/xlink" xmlns:sketch="http://www.bohemiancoding.com/sketch/ns">
    <!-- Generator: Sketch 3.5.2 (25235) - http://www.bohemiancoding.com/sketch -->
    <title>icon/18/icon-grid-16</title>
    <desc>Created with Sketch.</desc>
    <defs></defs>
    <g id="out" stroke="none" stroke-width="1" fill="none" fill-rule="evenodd" sketch:type="MSPage">
        <path d="M1,9.88888892 L4.66666663,9.88888892 L4.66666663,13.5555555 L1,13.5555555 L1,9.88888892 L1,9.88888892 Z M5.44444446,9.88888892 L9.11111108,9.88888892 L9.11111108,13.5555555 L5.44444446,13.5555555 L5.44444446,9.88888892 L5.44444446,9.88888892 Z M9.88888892,9.88888892 L13.5555555,9.88888892 L13.5555555,13.5555555 L9.88888892,13.5555555 L9.88888892,9.88888892 L9.88888892,9.88888892 Z M14.3333334,9.88888892 L18,9.88888892 L18,13.5555555 L14.3333334,13.5555555 L14.3333334,9.88888892 L14.3333334,9.88888892 Z M1,14.3333334 L4.66666663,14.3333334 L4.66666663,18 L1,18 L1,14.3333334 L1,14.3333334 Z M5.44444446,14.3333334 L9.11111108,14.3333334 L9.11111108,18 L5.44444446,18 L5.44444446,14.3333334 L5.44444446,14.3333334 Z M9.88888892,14.3333334 L13.5555555,14.3333334 L13.5555555,18 L9.88888892,18 L9.88888892,14.3333334 L9.88888892,14.3333334 Z M14.3333334,14.3333334 L18,14.3333334 L18,18 L14.3333334,18 L14.3333334,14.3333334 L14.3333334,14.3333334 Z M1,5.44444446 L4.66666663,5.44444446 L4.66666663,9.11111108 L1,9.11111108 L1,5.44444446 L1,5.44444446 Z M5.44444446,5.44444446 L9.11111108,5.44444446 L9.11111108,9.11111108 L5.44444446,9.11111108 L5.44444446,5.44444446 L5.44444446,5.44444446 Z M9.88888892,5.44444446 L13.5555555,5.44444446 L13.5555555,9.11111108 L9.88888892,9.11111108 L9.88888892,5.44444446 L9.88888892,5.44444446 Z M14.3333334,5.44444446 L18,5.44444446 L18,9.11111108 L14.3333334,9.11111108 L14.3333334,5.44444446 L14.3333334,5.44444446 Z M1,1 L4.66666663,1 L4.66666663,4.66666663 L1,4.66666663 L1,1 L1,1 Z M5.44444446,1 L9.11111108,1 L9.11111108,4.66666663 L5.44444446,4.66666663 L5.44444446,1 L5.44444446,1 Z M9.88888892,1 L13.5555555,1 L13.5555555,4.66666663 L9.88888892,4.66666663 L9.88888892,1 L9.88888892,1 Z M14.3333334,1 L18,1 L18,4.66666663 L14.3333334,4.66666663 L14.3333334,1 L14.3333334,1 Z" id="path" fill="#000000" sketch:type="MSShapeGroup"></path>
    </g>
</svg>