<?xml version="1.0" encoding="UTF-8" standalone="no"?>
<svg width="24px" height="24px" viewBox="0 0 24 24" version="1.1" xmlns="http://www.w3.org/2000/svg" xmlns:xlink="http://www.w3.org/1999/xlink">
    <!-- Generator: Sketch 3.7.2 (28276) - http://www.bohemiancoding.com/sketch -->
    <title>icon/24/icon-sunny</title>
    <desc>Created with Sketch.</desc>
    <defs></defs>
    <g id="Output-temp" stroke="none" stroke-width="1" fill="none" fill-rule="evenodd">
        <g id="temp" transform="translate(-607.000000, -105.000000)" fill="#B8BDBF">
            <path d="M613.76,110.309589 L611.96,108.511416 L610.55,109.927854 L612.34,111.726027 L613.76,110.309589 L613.76,110.309589 Z M611,115.995434 L608,115.995434 L608,118.004566 L611,118.004566 L611,115.995434 L611,115.995434 Z M620,106 L618,106 L618,108.96347 L620,108.96347 L620,106 L620,106 Z M627.45,109.927854 L626.04,108.511416 L624.25,110.309589 L625.66,111.726027 L627.45,109.927854 L627.45,109.927854 Z M624.24,123.690411 L626.03,125.49863 L627.44,124.082192 L625.64,122.284018 L624.24,123.690411 L624.24,123.690411 Z M627,115.995434 L627,118.004566 L630,118.004566 L630,115.995434 L627,115.995434 L627,115.995434 Z M619,111 C615.69,111 613,113.69 613,117 C613,120.31 615.69,123 619,123 C622.31,123 625,120.31 625,117 C625,113.69 622.31,111 619,111 L619,111 Z M618,128 L620,128 L620,125 L618,125 L618,128 L618,128 Z M610.55,124.058319 L611.96,125.463927 L613.75,123.669534 L612.34,122.263927 L610.55,124.058319 L610.55,124.058319 Z" id="path"></path>
        </g>
    </g>
</svg>