<?xml version="1.0" encoding="UTF-8" standalone="no"?>
<svg width="18px" height="18px" viewBox="0 0 18 18" version="1.1" xmlns="http://www.w3.org/2000/svg" xmlns:xlink="http://www.w3.org/1999/xlink" xmlns:sketch="http://www.bohemiancoding.com/sketch/ns">
    <!-- Generator: Sketch 3.5.2 (25235) - http://www.bohemiancoding.com/sketch -->
    <title>icon/18/icon-minimize</title>
    <desc>Created with Sketch.</desc>
    <defs></defs>
    <g id="out" stroke="none" stroke-width="1" fill="none" fill-rule="evenodd" sketch:type="MSPage">
        <path d="M11.6569196,10.5226102 L11.0595166,10.5226102 L10.8477789,10.3184345 C11.588861,9.45635933 12.0350227,8.33717406 12.0350227,7.11968198 C12.0350227,4.40490149 9.83446247,2.20434126 7.11968198,2.20434126 C4.40490149,2.20434126 2.20434126,4.40490149 2.20434126,7.11968198 C2.20434126,9.83446247 4.40490149,12.0350227 7.11968198,12.0350227 C8.33717406,12.0350227 9.45635933,11.588861 10.3184345,10.8477789 L10.5226102,11.0595166 L10.5226102,11.6569196 L14.3036415,15.4303888 L15.4303888,14.3036415 L11.6569196,10.5226102 L11.6569196,10.5226102 L11.6569196,10.5226102 Z M7.11968198,10.5226102 C5.23672838,10.5226102 3.71675379,9.00263558 3.71675379,7.11968198 C3.71675379,5.23672838 5.23672838,3.71675379 7.11968198,3.71675379 C9.00263558,3.71675379 10.5226102,5.23672838 10.5226102,7.11968198 C10.5226102,9.00263558 9.00263558,10.5226102 7.11968198,10.5226102 L7.11968198,10.5226102 L7.11968198,10.5226102 Z M4.95976784,6.61302378 L9.36845036,6.61302378 L9.36845036,7.74733318 L4.95976784,7.74733318 L4.95976784,6.61302378 L4.95976784,6.61302378 Z" id="path" fill="#000000" sketch:type="MSShapeGroup"></path>
    </g>
</svg>